<svg xmlns="http://www.w3.org/2000/svg" width="640" height="360" viewBox="0 0 640 360" role="img" aria-label="Pastane">
  <defs>
    <linearGradient id="bg" x1="0" y1="0" x2="1" y2="1">
      <stop offset="0" stop-color="#fdf2f8"/>
      <stop offset="1" stop-color="#fff7ed"/>
    </linearGradient>
    <filter id="shadow" x="-20%" y="-20%" width="140%" height="140%">
      <feDropShadow dx="0" dy="10" stdDeviation="12" flood-color="#000" flood-opacity="0.12"/>
    </filter>
  </defs>

  <rect width="100%" height="100%" fill="url(#bg)"/>
  <rect x="18" y="18" width="604" height="324" rx="22" fill="#ffffff" filter="url(#shadow)"/>

  <!-- Cupcake -->
  <g transform="translate(0,6)">
    <path d="M250,250 C250,210 282,182 320,182 C358,182 390,210 390,250" fill="#fde68a" opacity="0.95"/>
    <path d="M252,250 L388,250 L374,294 C372,304 363,312 352,312 L288,312 C277,312 268,304 266,294 L252,250 Z" fill="#111827" opacity="0.9"/>
    <path d="M268,250 C276,226 296,210 320,210 C344,210 364,226 372,250" fill="#f3f4f6" opacity="0.18"/>
    <path d="M258,254 L382,254" stroke="#f3f4f6" stroke-width="6" opacity="0.18"/>

    <!-- Frosting swirl -->
    <path d="M320,120 C355,120 382,145 382,172 C382,190 372,202 360,208 C370,214 378,226 378,240 C378,262 352,278 320,278 C288,278 262,262 262,240 C262,226 270,214 280,208 C268,202 258,190 258,172 C258,145 285,120 320,120 Z" fill="#fb7185" opacity="0.9"/>
    <path d="M290,176 C300,160 310,152 320,152 C330,152 340,160 350,176" fill="none" stroke="#ffffff" stroke-width="8" stroke-linecap="round" opacity="0.35"/>

    <!-- Cherry -->
    <circle cx="320" cy="112" r="12" fill="#111827" opacity="0.85"/>
    <path d="M320,112 C328,98 342,92 356,92" fill="none" stroke="#111827" stroke-width="4" stroke-linecap="round" opacity="0.55"/>
  </g>

  <!-- Sprinkles -->
  <g opacity="0.55">
    <rect x="140" y="96" width="18" height="6" rx="3" fill="#fb7185"/>
    <rect x="500" y="110" width="18" height="6" rx="3" fill="#f59e0b"/>
    <rect x="512" y="86" width="18" height="6" rx="3" fill="#10b981"/>
    <rect x="126" y="124" width="18" height="6" rx="3" fill="#111827" opacity="0.35"/>
  </g>
</svg>
